<svg xmlns="http://www.w3.org/2000/svg" width="1200" height="630" viewBox="0 0 1200 630" role="img" aria-label="DataX Technologies">
  <defs>
    <linearGradient id="bg" x1="0" y1="0" x2="1" y2="1">
      <stop offset="0%" stop-color="#06101f"/>
      <stop offset="55%" stop-color="#071b38"/>
      <stop offset="100%" stop-color="#03101f"/>
    </linearGradient>
    <linearGradient id="cyan" x1="0" y1="0" x2="1" y2="1">
      <stop offset="0%" stop-color="#13c8ff"/>
      <stop offset="100%" stop-color="#2563eb"/>
    </linearGradient>
    <filter id="glow">
      <feGaussianBlur stdDeviation="8" result="blur"/>
      <feMerge>
        <feMergeNode in="blur"/>
        <feMergeNode in="SourceGraphic"/>
      </feMerge>
    </filter>
  </defs>
  <rect width="1200" height="630" fill="url(#bg)"/>
  <path d="M0 470 C240 390 360 540 600 450 C820 370 960 220 1200 280 L1200 630 L0 630 Z" fill="#13c8ff" opacity="0.06"/>
  <g opacity="0.18">
    <path d="M120 120H1080M120 210H1080M120 300H1080M120 390H1080M120 480H1080" stroke="#13c8ff"/>
    <path d="M210 70V560M360 70V560M510 70V560M660 70V560M810 70V560M960 70V560" stroke="#13c8ff"/>
  </g>
  <rect x="86" y="82" width="1028" height="466" rx="32" fill="#06101f" opacity="0.72" stroke="#13c8ff" stroke-opacity="0.28"/>
  <g transform="translate(135 150)">
    <rect x="0" y="0" width="104" height="104" rx="24" fill="#ffffff" stroke="#13c8ff" stroke-width="3" filter="url(#glow)"/>
    <path d="M31 25L74 79M74 25L31 79M30 25H52M52 79H30" fill="none" stroke="url(#cyan)" stroke-width="6" stroke-linecap="round" stroke-linejoin="round"/>
  </g>
  <text x="270" y="202" fill="#ffffff" font-family="Arial, Helvetica, sans-serif" font-size="62" font-weight="800">DataX Technologies</text>
  <text x="270" y="260" fill="#13c8ff" font-family="Arial, Helvetica, sans-serif" font-size="28" font-weight="700">Leading Software Development Company in Islamabad</text>
  <text x="135" y="354" fill="#dbeafe" font-family="Arial, Helvetica, sans-serif" font-size="40" font-weight="700">Building Intelligent Solutions for a Smarter Tomorrow</text>
  <text x="135" y="425" fill="#94a3b8" font-family="Arial, Helvetica, sans-serif" font-size="24">Web Development - Mobile Apps - AI Automation - Data Science - Cyber Security - DevOps - UI/UX - SEO</text>
  <text x="135" y="490" fill="#13c8ff" font-family="Arial, Helvetica, sans-serif" font-size="24" font-weight="700">www.datax.pk  |  datax.sol@gmail.com</text>
</svg>
